<svg xmlns="http://www.w3.org/2000/svg" xmlns:xlink="http://www.w3.org/1999/xlink" width="230" zoomAndPan="magnify" viewBox="0 0 375 374.999991" height="230" preserveAspectRatio="xMidYMid meet" version="1.0"><defs><g/></defs><g fill="#000000" fill-opacity="1"><g transform="translate(-0.245015, 197.904326)"><g><path d="M 5.359375 -73.65625 L 26.6875 -73.65625 C 36.925781 -73.65625 45.675781 -70.15625 52.9375 -63.15625 C 60.207031 -56.164062 63.84375 -47.40625 63.84375 -36.875 C 63.84375 -26.28125 60.222656 -17.484375 52.984375 -10.484375 C 45.753906 -3.492188 36.988281 0 26.6875 0 L 5.359375 0 Z M 22.140625 -15 L 24.734375 -15 C 30.859375 -15 35.867188 -17.066406 39.765625 -21.203125 C 43.671875 -25.335938 45.65625 -30.53125 45.71875 -36.78125 C 45.71875 -43.03125 43.765625 -48.238281 39.859375 -52.40625 C 35.960938 -56.570312 30.921875 -58.65625 24.734375 -58.65625 L 22.140625 -58.65625 Z M 22.140625 -15 "/></g></g></g><g fill="#000000" fill-opacity="1"><g transform="translate(57.224209, 197.904326)"><g><path d="M 8.46875 -5.65625 C 4.1875 -10.332031 2.046875 -16.0625 2.046875 -22.84375 C 2.046875 -29.632812 4.1875 -35.378906 8.46875 -40.078125 C 12.757812 -44.785156 18.207031 -47.140625 24.8125 -47.140625 C 30.882812 -47.140625 35.882812 -45.234375 39.8125 -41.421875 L 39.8125 -45.796875 L 55.625 -45.796875 L 55.625 0 L 40 0 L 40 -5.171875 L 39.8125 -5.171875 C 35.882812 -0.828125 30.882812 1.34375 24.8125 1.34375 C 18.207031 1.34375 12.757812 -0.988281 8.46875 -5.65625 Z M 21.921875 -30.625 C 19.867188 -28.601562 18.84375 -26.015625 18.84375 -22.859375 C 18.84375 -19.703125 19.820312 -17.125 21.78125 -15.125 C 23.75 -13.132812 26.335938 -12.140625 29.546875 -12.140625 C 32.640625 -12.140625 35.179688 -13.148438 37.171875 -15.171875 C 39.171875 -17.203125 40.171875 -19.765625 40.171875 -22.859375 C 40.171875 -26.015625 39.144531 -28.601562 37.09375 -30.625 C 35.039062 -32.644531 32.523438 -33.65625 29.546875 -33.65625 C 26.515625 -33.65625 23.972656 -32.644531 21.921875 -30.625 Z M 21.921875 -30.625 "/></g></g></g><g fill="#000000" fill-opacity="1"><g transform="translate(109.785026, 197.904326)"><g><path d="M 6.875 -71.328125 C 8.71875 -73.179688 10.921875 -74.109375 13.484375 -74.109375 C 16.046875 -74.109375 18.25 -73.179688 20.09375 -71.328125 C 21.9375 -69.484375 22.859375 -67.28125 22.859375 -64.71875 C 22.859375 -62.164062 21.9375 -59.96875 20.09375 -58.125 C 18.25 -56.28125 16.046875 -55.359375 13.484375 -55.359375 C 10.921875 -55.359375 8.71875 -56.28125 6.875 -58.125 C 5.03125 -59.96875 4.109375 -62.164062 4.109375 -64.71875 C 4.109375 -67.28125 5.03125 -69.484375 6.875 -71.328125 Z M 5.359375 -45.796875 L 5.359375 0 L 21.15625 0 L 21.15625 -45.796875 Z M 5.359375 -45.796875 "/></g></g></g><g fill="#000000" fill-opacity="1"><g transform="translate(128.343956, 197.904326)"><g><path d="M 5.359375 0 L 5.359375 -76.78125 L 21.15625 -76.78125 L 21.15625 0 Z M 5.359375 0 "/></g></g></g><g fill="#000000" fill-opacity="1"><g transform="translate(146.456679, 197.904326)"><g><path d="M 40.09375 -45.796875 L 58.296875 -45.796875 L 22.328125 23.21875 L 4.109375 23.21875 L 19.90625 -7.140625 L -1.78125 -45.796875 L 16.421875 -45.796875 L 29.1875 -22.328125 Z M 40.09375 -45.796875 "/></g></g></g><g fill="#000000" fill-opacity="1"><g transform="translate(194.555298, 197.904326)"><g><path d="M 3.296875 11.25 L 16.25 4.90625 C 18.632812 8.832031 22.769531 10.796875 28.65625 10.796875 C 31.394531 10.796875 33.9375 9.914062 36.28125 8.15625 C 38.632812 6.40625 39.8125 3.71875 39.8125 0.09375 L 39.8125 -3.296875 C 37.019531 -0.203125 32.019531 1.34375 24.8125 1.34375 C 18.207031 1.34375 12.757812 -0.988281 8.46875 -5.65625 C 4.1875 -10.332031 2.046875 -16.0625 2.046875 -22.84375 C 2.046875 -29.632812 4.1875 -35.378906 8.46875 -40.078125 C 12.757812 -44.785156 18.207031 -47.140625 24.8125 -47.140625 C 30.707031 -47.140625 35.617188 -45.320312 39.546875 -41.6875 L 39.8125 -41.6875 L 39.8125 -45.796875 L 55.625 -45.796875 L 55.625 1.25 C 55.625 8.6875 53.148438 14.425781 48.203125 18.46875 C 43.265625 22.519531 36.75 24.546875 28.65625 24.546875 C 15.5625 24.546875 7.109375 20.113281 3.296875 11.25 Z M 21.921875 -30.625 C 19.867188 -28.601562 18.84375 -26.015625 18.84375 -22.859375 C 18.84375 -19.703125 19.820312 -17.125 21.78125 -15.125 C 23.75 -13.132812 26.335938 -12.140625 29.546875 -12.140625 C 32.640625 -12.140625 35.179688 -13.148438 37.171875 -15.171875 C 39.171875 -17.203125 40.171875 -19.765625 40.171875 -22.859375 C 40.171875 -26.015625 39.144531 -28.601562 37.09375 -30.625 C 35.039062 -32.644531 32.523438 -33.65625 29.546875 -33.65625 C 26.515625 -33.65625 23.972656 -32.644531 21.921875 -30.625 Z M 21.921875 -30.625 "/></g></g></g><g fill="#000000" fill-opacity="1"><g transform="translate(247.116115, 197.904326)"><g><path d="M 6.875 -71.328125 C 8.71875 -73.179688 10.921875 -74.109375 13.484375 -74.109375 C 16.046875 -74.109375 18.25 -73.179688 20.09375 -71.328125 C 21.9375 -69.484375 22.859375 -67.28125 22.859375 -64.71875 C 22.859375 -62.164062 21.9375 -59.96875 20.09375 -58.125 C 18.25 -56.28125 16.046875 -55.359375 13.484375 -55.359375 C 10.921875 -55.359375 8.71875 -56.28125 6.875 -58.125 C 5.03125 -59.96875 4.109375 -62.164062 4.109375 -64.71875 C 4.109375 -67.28125 5.03125 -69.484375 6.875 -71.328125 Z M 5.359375 -45.796875 L 5.359375 0 L 21.15625 0 L 21.15625 -45.796875 Z M 5.359375 -45.796875 "/></g></g></g><g fill="#000000" fill-opacity="1"><g transform="translate(265.675046, 197.904326)"><g><path d="M 25.265625 -47.140625 C 27.878906 -47.140625 30.46875 -46.84375 33.03125 -46.25 C 35.59375 -45.65625 37.5 -45.0625 38.75 -44.46875 L 40.625 -43.5625 L 35.4375 -33.21875 C 31.875 -35.113281 28.484375 -36.0625 25.265625 -36.0625 C 23.484375 -36.0625 22.21875 -35.867188 21.46875 -35.484375 C 20.726562 -35.097656 20.359375 -34.367188 20.359375 -33.296875 C 20.359375 -33.054688 20.382812 -32.816406 20.4375 -32.578125 C 20.5 -32.347656 20.617188 -32.128906 20.796875 -31.921875 C 20.984375 -31.710938 21.148438 -31.53125 21.296875 -31.375 C 21.441406 -31.226562 21.691406 -31.066406 22.046875 -30.890625 C 22.410156 -30.710938 22.695312 -30.578125 22.90625 -30.484375 C 23.113281 -30.398438 23.453125 -30.265625 23.921875 -30.078125 C 24.398438 -29.898438 24.757812 -29.765625 25 -29.671875 C 25.238281 -29.585938 25.640625 -29.457031 26.203125 -29.28125 C 26.765625 -29.101562 27.195312 -28.984375 27.5 -28.921875 C 29.34375 -28.390625 30.945312 -27.796875 32.3125 -27.140625 C 33.6875 -26.484375 35.128906 -25.585938 36.640625 -24.453125 C 38.160156 -23.328125 39.335938 -21.898438 40.171875 -20.171875 C 41.003906 -18.453125 41.421875 -16.488281 41.421875 -14.28125 C 41.421875 -3.863281 34.191406 1.34375 19.734375 1.34375 C 16.460938 1.34375 13.351562 0.835938 10.40625 -0.171875 C 7.457031 -1.191406 5.328125 -2.207031 4.015625 -3.21875 L 2.046875 -4.828125 L 8.484375 -15.625 C 8.960938 -15.207031 9.585938 -14.710938 10.359375 -14.140625 C 11.128906 -13.578125 12.523438 -12.804688 14.546875 -11.828125 C 16.578125 -10.847656 18.335938 -10.359375 19.828125 -10.359375 C 23.097656 -10.359375 24.734375 -11.457031 24.734375 -13.65625 C 24.734375 -14.664062 24.316406 -15.453125 23.484375 -16.015625 C 22.648438 -16.585938 21.234375 -17.226562 19.234375 -17.9375 C 17.242188 -18.65625 15.679688 -19.3125 14.546875 -19.90625 C 11.691406 -21.394531 9.429688 -23.078125 7.765625 -24.953125 C 6.097656 -26.828125 5.265625 -29.3125 5.265625 -32.40625 C 5.265625 -37.050781 7.066406 -40.664062 10.671875 -43.25 C 14.273438 -45.84375 19.140625 -47.140625 25.265625 -47.140625 Z M 25.265625 -47.140625 "/></g></g></g><g fill="#000000" fill-opacity="1"><g transform="translate(301.190311, 197.904326)"><g><path d="M 8.03125 -45.796875 L 8.03125 -62.859375 L 23.84375 -62.859375 L 23.84375 -45.796875 L 33.484375 -45.796875 L 33.484375 -33.75 L 23.84375 -33.75 L 23.84375 -19.203125 C 23.84375 -14.972656 25.03125 -12.859375 27.40625 -12.859375 C 28 -12.859375 28.625 -12.976562 29.28125 -13.21875 C 29.9375 -13.457031 30.441406 -13.691406 30.796875 -13.921875 L 31.34375 -14.28125 L 35.265625 -1.515625 C 31.867188 0.390625 28 1.34375 23.65625 1.34375 C 20.6875 1.34375 18.128906 0.820312 15.984375 -0.21875 C 13.835938 -1.257812 12.210938 -2.65625 11.109375 -4.40625 C 10.015625 -6.164062 9.226562 -8.015625 8.75 -9.953125 C 8.269531 -11.890625 8.03125 -13.957031 8.03125 -16.15625 L 8.03125 -33.75 L 1.421875 -33.75 L 1.421875 -45.796875 Z M 8.03125 -45.796875 "/></g></g></g><g fill="#000000" fill-opacity="1"><g transform="translate(328.048894, 197.904326)"><g/></g></g><g fill="#000000" fill-opacity="1"><g transform="translate(344.019774, 197.904326)"><g><path d="M 15.53125 -19.109375 C 18.394531 -19.109375 20.820312 -18.109375 22.8125 -16.109375 C 24.800781 -14.117188 25.796875 -11.695312 25.796875 -8.84375 C 25.796875 -6.039062 24.800781 -3.640625 22.8125 -1.640625 C 20.820312 0.347656 18.394531 1.34375 15.53125 1.34375 C 12.738281 1.34375 10.34375 0.347656 8.34375 -1.640625 C 6.351562 -3.640625 5.359375 -6.039062 5.359375 -8.84375 C 5.359375 -11.695312 6.351562 -14.117188 8.34375 -16.109375 C 10.34375 -18.109375 12.738281 -19.109375 15.53125 -19.109375 Z M 15.53125 -19.109375 "/></g></g></g></svg>